<svg id="Layer_1" enable-background="new 0 0 512 512" height="512" viewBox="0 0 512 512" width="512" xmlns="http://www.w3.org/2000/svg"><g><path d="m319.2 157.467c0-34.904-28.296-63.2-63.2-63.2s-63.2 28.296-63.2 63.2v106.254c0 8.284 6.716 15 15 15h96.4c8.284 0 15-6.716 15-15z" fill="#08475e"/><path d="m319.2 263.721v-106.254c0-34.904-28.296-63.2-63.2-63.2v184.454h48.2c8.284 0 15-6.716 15-15z" fill="#05303d"/><circle cx="256" cy="47.133" fill="#ffe1d7" r="47.133"/><path d="m303.133 47.133c0-26.031-21.102-47.133-47.133-47.133v94.267c26.031 0 47.133-21.103 47.133-47.134z" fill="#ffc5c1"/><path d="m207.8 512h-192.8c-8.284 0-15-6.716-15-15v-98.533c0-25.808 20.855-47.133 47.133-47.133h50.956c4.577 0 8.881-1.783 12.12-5.021l173.97-173.97c8.904-8.905 20.742-13.809 33.333-13.809h147.355c25.808 0 47.133 20.856 47.133 47.133v98.533c0 8.284-6.716 15-15 15h-90.187l-188.407 188.406c-2.813 2.814-6.628 4.394-10.606 4.394z" fill="#f4f1f1"/><path d="m304.2 143.533h.01z"/><path d="m464.867 158.533h-147.356c-12.59 0-24.428 4.904-33.333 13.809l-28.178 28.179v269.492l150.813-150.813h90.187c8.284 0 15-6.716 15-15v-98.534c0-26.277-21.326-47.133-47.133-47.133z" fill="#e7dfdd"/><path d="m368.467 207.8h-40.167c-8.284 0-15 6.716-15 15s6.716 15 15 15h3.954l-178.867 178.867h-58.054c-8.284 0-15 6.716-15 15s6.716 15 15 15h64.267c3.979 0 7.793-1.581 10.606-4.394l183.26-183.26v3.954c0 8.284 6.716 15 15 15s15-6.716 15-15v-40.167c.001-8.284-6.715-15-14.999-15z" fill="#50c8ff"/><path d="m368.467 207.8h-40.167c-8.284 0-15 6.716-15 15s6.716 15 15 15h3.954l-76.254 76.253v42.426l97.467-97.467v3.954c0 8.284 6.716 15 15 15s15-6.716 15-15v-40.166c0-8.284-6.716-15-15-15z" fill="#3291ff"/></g></svg>